PathFileType	4	(X/Y/Z)	C:/Users/beibeiliu/ov580/test_trc/User3\out3_training_dense_right.trc
DataRate	CameraRate	NumFrames	NumMarkers	Units	OrigDataRate	OrigDataStartFrame	OrigNumFrames
120	120	19	19	mm	120	251	500
Frame#	Time	ThumbCMC			ThumbMCP			ThumbIP			ThumbTip			IndexMCP			IndexPIP			IndexTip			MiddleMCP			MiddlePIP			MiddleTip			RingMCP			RingPIP			RingTip			PinkyMCP			PinkyPIP			PinkyTip			BackHand1			BackHand2			BackHand3	
		X0	Y0	Z0	X1	Y1	Z1	X2	Y2	Z2	X3	Y3	Z3	X4	Y4	Z4	X5	Y5	Z5	X6	Y6	Z6	X7	Y7	Z7	X8	Y8	Z8	X9	Y9	Z9	X10	Y10	Z10	X11	Y11	Z11	X12	Y12	Z12	X13	Y13	Z13	X14	Y14	Z14	X15	Y15	Z15	X16	Y16	Z16	X17	Y17	Z17	X18	Y18	Z18	
250	2.08333	199.584	56.572	67.058	185.66	76.7271	39.6014	167.87	73.309	10.7406	150.249	51.4765	4.76498	203.095	51.1128	-2.9633	179.612	68.7117	-2.83258	178.481	66.492	30.5454	186.801	34.6172	-5.20041	162.565	55.9328	0.259669	170.648	43.5305	36.8951	170.906	20.2729	0.575378	149.513	41.6946	4.33834	156.535	39.5262	40.0265	170.156	0.503921	7.18051	163.759	10.9302	-17.6637	149.267	31.3523	-27.2643	192.222	-4.62406	50.7137	187.261	-5.23534	77.9403	212.655	18.8691	62.6659	
251	2.09167	200.048	58.1143	69.6079	185.073	74.0951	41.864	167.917	72.1952	15.0944	150.095	49.1113	3.35005	206.186	48.6848	1.33082	181.222	72.4495	0.171634	178.378	62.2813	33.9306	190.136	35.4486	-4.47311	163.968	56.1502	0.79983	170.964	46.6255	37.4665	173.854	22.5047	-0.0676	149.248	40.2982	3.7642	157.031	40.2313	38.1589	170.516	-1.44758	6.88758	163.636	12.5471	-15.7065	148.529	33.6973	-25.2698	194.397	-5.07698	48.4891	185.311	-7.65795	77.766	211.906	19.051	63.9038	
252	2.1	197.123	58.3914	70.1071	183.87	74.8587	38.2125	166.033	71.3722	13.1258	150.341	51.7081	6.39602	202.206	44.9675	-0.0626011	177.429	69.0715	-0.412843	178.35	64.4788	34.5539	188.383	34.3302	-5.12601	162.799	52.9821	-3.15167	171.707	43.7376	37.4265	174.73	20.8836	-0.0787159	150.014	38.8324	1.18573	155.034	40.0689	36.6455	173.596	1.50746	8.12186	161.164	10.167	-15.2405	142.393	31.3715	-19.3488	193.145	-7.13099	50.3419	186.345	-8.7654	79.8949	210.99	17.7437	65.6763	
253	2.10833	196.473	59.6767	67.8695	181.451	75.4249	42.6436	164.08	72.2518	9.98825	148.223	51.9854	-0.0852289	203.735	50.6421	-0.535671	177.355	71.1687	-2.24735	174.971	68.6191	29.8231	190.416	36.4844	-5.40369	161.408	53.7195	-2.64835	169.304	46.4977	36.2002	175.234	19.3621	-2.98755	153.32	37.9471	-2.91731	153.165	42.1069	31.9364	171.409	-1.16455	7.32222	161.985	10.4089	-14.0582	140.34	32.2811	-13.5066	193.451	-3.75828	48.5491	191.865	-5.25473	79.9647	211.717	19.7388	66.392	
254	2.11667	191.913	59.8672	70.0246	177.658	75.4676	40.9042	163.194	72.6731	13.0753	149.454	51.3379	2.32385	199.339	51.0783	-4.61312	175.008	68.2417	-6.8694	173.026	68.5212	30.1117	190.956	36.5613	-6.97383	162.085	54.341	-7.71461	166.557	46.2497	32.404	177.481	19.6984	-4.68885	152.655	38.2009	-7.24923	151.295	42.6384	27.4578	171.802	-2.51818	5.19639	160.166	16.0753	-14.79	140.893	32.6819	-7.11506	194.266	-4.00112	50.4366	193.51	-2.33227	76.8773	211.713	25.4976	66.8125	
255	2.125	188.754	64.7697	70.936	174.899	79.2749	37.7078	159.382	78.8727	9.61705	145.917	57.6216	-6.07408	200.763	53.4061	-2.71546	172.571	71.2341	-11.5582	165.919	70.1325	24.103	189.194	37.5294	-10.8622	160.744	52.1859	-13.5317	159.408	50.2715	24.0931	179.348	18.9777	-3.63955	150.457	35.5383	-10.2119	147.104	42.7628	19.6298	172.96	-2.25953	4.73988	157.753	11.8681	-15.369	139.578	30.3958	-7.08992	196.247	1.65556	46.499	193.182	-0.210489	79.692	210.343	32.2706	63.9771	
256	2.13333	184.346	66.3437	65.9387	169.806	80.8148	39.2834	158.567	82.9733	10.7359	147.773	69.8536	-5.73258	196.795	56.0555	-6.20867	171.462	71.0371	-18.8273	157.231	71.4026	13.206	188.509	36.7765	-10.4506	157.54	49.7717	-17.2978	154.485	51.4774	23.0971	180.142	24.8666	-8.90829	151.489	29.9855	-13.9145	142.702	40.6581	16.3734	176.12	0.672596	0.837594	158.521	13.9887	-15.6379	137.627	26.2304	-6.48366	200.116	8.57273	47.2659	197.336	4.78351	75.8785	208.503	33.892	65.4054	
257	2.14167	179.437	72.3734	70.0363	167.342	83.1468	42.399	157.119	93.7431	15.5618	149.426	86.0654	-8.51915	194.447	64.5786	-7.55515	164.83	69.3255	-21.073	148.279	71.5227	5.09025	187.109	45.5084	-13.119	156.036	52.1196	-19.8793	147.703	50.1983	19.8764	179.836	27.254	-8.47185	149.228	32.1119	-14.1732	139.412	40.1555	15.3121	176.984	3.81293	1.84897	158.878	11.1064	-15.4459	134.386	25.5207	-0.952079	200.393	12.5903	43.5243	198.556	8.28133	74.607	205.312	41.6887	64.5885	
258	2.15	175.496	73.7855	70.302	167.258	92.9328	42.4232	159.601	102.085	17.4319	151.7	104.833	-6.9324	191.875	64.192	-7.03626	162.088	70.8398	-25.7349	140.763	71.2814	-5.98591	182.236	43.9538	-13.1054	148.683	54.5741	-19.827	139.948	51.3088	18.3172	174.131	25.5388	-10.6154	144.4	33.1887	-14.0371	135.551	38.686	19.1777	175.727	7.66571	4.89742	152.436	11.331	-14.5191	133.072	27.1666	2.35086	201.487	17.6464	45.3425	196.209	10.3551	73.1381	204.569	48.5176	62.2925	
259	2.15833	174.629	77.4971	69.3714	166.97	92.078	43.3793	161.983	106.991	20.0656	155.095	116.569	0.908408	188.25	68.9718	-10.1761	162.685	73.4161	-29.1673	133.276	75.6345	-14.117	177.032	45.458	-16.108	146.925	55.4342	-21.9544	130.372	50.5759	11.3296	173.644	30.2967	-7.24255	144.125	31.9358	-14.2606	129.686	41.0895	15.1895	172.578	6.46155	0.594153	146.893	15.127	-12.4945	128.8	26.5391	4.26232	199.629	18.2733	42.3937	193.545	13.3613	76.143	200	53.6396	63.8847	
260	2.16667	171.117	80.5478	70.1578	164.159	94.2363	47.5355	160.509	113.526	22.8721	155.155	126.707	4.96129	184.82	66.0931	-11.538	164.713	69.5613	-33.2459	131.285	74.3604	-28.0831	176.918	47.4402	-12.758	144.773	52.7066	-25.7674	122.907	53.2063	7.36946	168.448	31.051	-8.04294	137.641	34.4527	-13.6515	123.596	40.7865	16.6878	168.025	7.7965	-0.0762522	143.694	13.6737	-10.4585	125.296	25.8507	8.56797	195.347	20.9991	45.4132	193.091	18.886	75.3896	198.793	53.3086	58.4959	
261	2.175	168.924	79.6786	68.9685	161.433	97.6775	42.8942	156.361	114.024	18.0826	150.605	125.588	1.43875	182.144	69.2246	-11.2087	166.482	75.9517	-36.3098	134.875	74.137	-42.6402	171.744	51.1575	-17.4387	140.282	51.0716	-27.3656	114.956	53.9819	4.45936	163.017	30.7213	-10.2294	134.561	31.1704	-14.4915	117.521	41.7787	16.2345	164.161	10.6576	4.2887	136.636	14.4104	-8.5841	120.689	31.971	12.3655	194.283	23.7923	41.2284	191.977	24.1133	72.8488	194.223	56.6875	58.5444	
262	2.18333	167.094	83.2528	64.8125	155.232	99.4224	46.9004	148.627	118.21	23.3525	140.602	127.728	4.70548	178.948	73.0244	-14.6091	165.543	75.0079	-38.3196	139.89	76.902	-53.5419	166.969	48.9436	-18.1042	134.556	52.6716	-30.0749	109.782	53.5629	-3.43012	160.019	31.7086	-8.72888	127.982	35.5548	-13.7079	110.896	39.6299	15.6859	156.917	12.3763	1.54248	131.582	17.591	-7.3269	114.534	29.0803	12.1731	190.416	22.7887	42.2205	192.627	22.1728	70.6184	193.845	57.0958	53.7148	
263	2.19167	164.017	82.9345	62.973	150.773	99.3958	44.0406	140.162	114.792	17.9673	130.096	125.105	3.05386	177.942	76.526	-13.7577	167.347	84.3256	-39.4371	149.639	85.6188	-57.102	165.218	50.3171	-17.1733	135.665	54.4534	-31.6801	103.924	58.148	-6.83211	156.119	33.3653	-10.4281	124.561	32.5546	-14.3653	107.099	38.4953	12.7498	153.292	12.0738	2.04153	126.133	19.3906	-4.14844	109.032	32.6185	13.5062	189.192	26.1022	39.6334	191.44	23.5331	69.7928	189.539	58.4174	55.9806	
264	2.2	160.595	84.7572	67.7344	144.195	96.5468	45.8111	130.203	111.262	18.0767	118.001	114.863	3.01109	175.663	76.9874	-14.0014	167.584	86.6147	-36.6209	152.672	86.6927	-58.7312	161.404	50.5649	-18.5755	131.071	53.3138	-32.5012	98.8279	54.7358	-7.99062	153.415	30.2405	-8.98239	121.568	36.2414	-13.7063	103.374	39.6886	16.5556	150.512	14.22	2.49931	122.724	20.3687	-3.33754	107.014	36.211	18.0212	186.998	23.5454	39.7433	188.938	25.15	66.829	188.106	58.8201	55.1315	
265	2.20833	158.709	80.5167	62.3599	139.368	96.0305	41.8709	123.072	108.86	17.4512	108.524	112.488	-0.793109	173.992	75.3336	-12.826	167.154	85.1771	-37.3034	153.374	90.0218	-61.4926	157.632	51.4974	-21.2348	129.296	54.2782	-31.9541	97.2133	52.4937	-11.5922	148.754	32.7448	-9.43365	116.055	32.9387	-11.966	100.342	39.8044	11.3661	144.893	10.5833	0.819625	121.918	18.065	-3.10194	103.499	31.6027	19.4353	183.978	24.4094	34.2044	188.875	24.0749	69.8898	187.945	59.4355	53.3487	
266	2.21667	156.044	83.3363	61.3765	135.447	92.0914	42.4064	119.87	101.104	19.1321	102.228	107.605	-1.11991	172.875	73.8863	-10.0744	164.978	86.4626	-39.2969	155.196	88.8819	-60.8841	155.09	49.9219	-20.4436	125.584	54.9564	-32.8111	93.7256	58.0891	-14.9186	147.521	34.2181	-9.4627	118.073	30.7892	-12.2023	96.2888	40.0705	12.828	147.038	13.2788	3.89975	117.34	15.2882	-1.41499	99.7273	34.5021	14.46	184.476	24.1203	36.2573	185.389	22.8338	64.9569	185.004	56.2949	54.0609	
267	2.225	155.011	77.6111	64.1614	133.336	89.4193	39.5762	115.84	97.808	16.9888	100.52	99.1592	-1.23299	171.788	79.1011	-10.6767	165.669	82.4013	-36.712	156.201	88.7308	-64.62	155.182	52.7966	-19.4191	125.248	53.7401	-31.748	92.6342	56.6256	-18.6953	147.096	32.0696	-10.3847	116.425	36.5582	-13.9338	92.936	43.1604	9.4096	145.731	12.934	2.87174	119.078	15.1407	-3.58679	97.9468	32.2617	12.8368	183.805	23.6391	33.6356	186.964	21.9689	65.4409	185.495	57.575	50.3727	
268	2.23333	153.915	79.7277	64.2556	129.619	89.7711	37.3669	114.139	93.0847	16.891	98.9105	96.4785	-6.03119	172.764	75.2382	-15.8714	164.58	86.4612	-38.791	156.8	90.2851	-61.4438	155.994	50.7127	-19.4746	129.169	56.6923	-32.519	91.0883	53.3691	-21.8638	148.641	33.4143	-12.2107	118.804	36.6342	-17.5064	93.992	41.995	-0.526561	146.8	10.3278	0.926863	118.864	17.403	-6.84007	96.3759	28.0478	7.3316	183.689	25.3972	33.8379	183.998	19.9124	67.9401	185.488	58.4978	55.949	
